<svg id="Layer_1" data-name="Layer 1" xmlns="http://www.w3.org/2000/svg" viewBox="0 0 61.2 63.2"><defs><style>.cls-1{fill:#fff;}</style></defs><path class="cls-1" d="M43,64.1l-.8-1.4v-.2a6.2,6.2,0,0,0-.8-2.4c-.4-.6-1.4-.8-2.2-1a.6.6,0,0,0-.6,0l-2.3,1.4c-.8.4-1.2.4-1.7-.2l-3-2.9a1.2,1.2,0,0,1-.2-1.7l1.4-2.3a1.1,1.1,0,0,0,0-.8l-.7-1.8c-.2-.2-.4-.5-.6-.5L29,49.6c-.9-.2-1.2-.5-1.2-1.4V44.1c0-.8.3-1.1,1.1-1.3a18.3,18.3,0,0,1,2.5-.6.8.8,0,0,0,.7-.7l.6-1.5a.9.9,0,0,0,0-1.2,23.9,23.9,0,0,1-1.3-2.1,1.2,1.2,0,0,1,.2-1.7l3-3a1.1,1.1,0,0,1,1.6-.2l2.4,1.4c.2.2.5.1.7.1l1.3-.6c.8-.1,1.1-.6,1.3-1.4a16,16,0,0,1,.5-2.1,1,1,0,0,1,1.2-.9h4.3c.8,0,1.1.3,1.2,1s.5,1.8.7,2.6a.9.9,0,0,0,.6.6l1.8.8a.9.9,0,0,0,.7,0l2.4-1.4a1,1,0,0,1,1.6.1l3,3a1.1,1.1,0,0,1,.2,1.6l-1.3,2.3a.8.8,0,0,0-.1,1,5.2,5.2,0,0,1,.6,1.3c.1.7.5.9,1.1,1.1l2.2.5c.8.2,1.1.5,1.1,1.3v4.1a1.2,1.2,0,0,1-1.1,1.4l-2.6.7a1.5,1.5,0,0,0-.6.5,13.4,13.4,0,0,0-.7,1.8,1.1,1.1,0,0,0,0,.8c.5.8,1,1.6,1.4,2.4a.9.9,0,0,1-.2,1.5l-3,3.1a1.1,1.1,0,0,1-1.6.1l-2.4-1.4a.9.9,0,0,0-.7,0,8.4,8.4,0,0,1-1.4.6c-.7.1-1,.6-1.1,1.3s-.3,1.3-.5,2a7.6,7.6,0,0,1-.8,1.1ZM47.2,62c.3-1,.5-1.9.7-2.8A1.5,1.5,0,0,1,49,58.1l2.9-1.2a1.2,1.2,0,0,1,1.4,0l2.6,1.5,1.8-1.8a.9.9,0,0,0,0-.7l-1.3-2.2c-.3-.4-.2-.8,0-1.3a28.5,28.5,0,0,0,1.2-3.1,1.3,1.3,0,0,1,1-.9l2.5-.6c.3-.1.4-.2.4-.6V45.1c0-.3-.1-.4-.4-.5L58.7,44a1.4,1.4,0,0,1-1.1-1,14.8,14.8,0,0,0-1.2-2.9c-.2-.6-.3-1,.1-1.5l1.3-2.2c0-.1.1-.4,0-.5s-1.3-1.3-1.9-1.9l-2.6,1.5a1.4,1.4,0,0,1-1.5,0l-2.7-1.1a1.6,1.6,0,0,1-1.2-1.2,22.9,22.9,0,0,0-.7-2.8h-3l-.6,2.8a1.9,1.9,0,0,1-1.1,1.2l-2.8,1.1a1.5,1.5,0,0,1-1.6,0L35.6,34l-1.8,1.8c-.1.1-.1.5-.1.6l1.4,2.3c.3.4.2.8,0,1.3s-.9,2-1.2,3a1.7,1.7,0,0,1-1,1l-2.4.6c-.4.1-.6.2-.5.6v2c-.1.4.1.5.4.6l2.5.6a1.7,1.7,0,0,1,1,1,14.8,14.8,0,0,0,1.2,2.9,1.2,1.2,0,0,1-.1,1.5L33.8,56a.6.6,0,0,0,0,.6l1.8,1.9,2.5-1.6a1.5,1.5,0,0,1,1.6,0L42.4,58a1.6,1.6,0,0,1,1.2,1.3,26.8,26.8,0,0,0,.7,2.7Z" transform="translate(-2.5 -0.9)"/><path class="cls-1" d="M6.7,12.5c-2-.2-3.6-1.1-3.9-3.1A19.5,19.5,0,0,1,2.7,4,3.9,3.9,0,0,1,6.8.9H53.1a4.2,4.2,0,0,1,4.2,3.9v.8c0,7.6,0,15.3.1,23,0,.6-.2.8-.8.8H55.2V5.5A2.3,2.3,0,0,0,52.7,3H49.2a2.2,2.2,0,0,0-2.4,2.3V8.2a2.1,2.1,0,1,0,4.2,0v-1H48.9V5.1h3.4c.3,0,.7.5.8.8A17.4,17.4,0,0,1,53,9.2a4.2,4.2,0,0,1-4.3,3.3H8.9V48.3H21.1a3.1,3.1,0,0,1,1.3.3L26,50.4a1.2,1.2,0,0,1,.8,1.1,1.2,1.2,0,0,1-.8,1l-3.6,1.8a3.2,3.2,0,0,1-1.4.3H8.9v3.2h21v2.1H8.2c-1.1,0-1.4-.3-1.4-1.5s0-2.5,0-3.8H5.5a3.2,3.2,0,0,1-3-3.2,3.3,3.3,0,0,1,3.2-3.1h1ZM45.1,3H6.8A2,2,0,0,0,4.7,5.2V7.9a2.3,2.3,0,0,0,2.5,2.5H45.1A15.4,15.4,0,0,1,45.1,3ZM18.3,50.4H5.4a1,1,0,0,0-.7,1.1c0,.5.4.8.9.9H18.3Zm2.2,2.1c1.1.1,1.9-.7,2.9-1-1.1-.4-1.8-1.2-2.9-1.1Z" transform="translate(-2.5 -0.9)"/><path class="cls-1" d="M27.3,17.9c.6-.6,1.2-1.3,1.8-1.8a1.6,1.6,0,0,1,1-.5H43.6v2.1H31.3a1.8,1.8,0,0,0-1.6.6,3,3,0,0,1-.8.8,11.2,11.2,0,0,1,2.6,4.6c.3,1.1.4,2.1.6,3.2a1.2,1.2,0,0,1-1.3,1.3H20.7a1.4,1.4,0,0,1-1.1-.5l-7.2-7.1a1.2,1.2,0,0,1,.1-1.9,11.5,11.5,0,0,1,14.3-1.2C27,17.6,27.1,17.7,27.3,17.9Zm-12.7,2c2,2,4.1,4,6.1,6.1l.7.2h8.5a9.7,9.7,0,0,0-2.6-5.5l-2.9,3-1.6-1.5,2.9-2.8A9.3,9.3,0,0,0,14.6,19.9Z" transform="translate(-2.5 -0.9)"/><path class="cls-1" d="M4.6,37.8h-2V16.7h2Z" transform="translate(-2.5 -0.9)"/><path class="cls-1" d="M51.1,13.5h2V30.4h-2Z" transform="translate(-2.5 -0.9)"/><path class="cls-1" d="M12,37.7v-2H28.8v2Z" transform="translate(-2.5 -0.9)"/><path class="cls-1" d="M25.7,39.9V42H12V39.9Z" transform="translate(-2.5 -0.9)"/><path class="cls-1" d="M47.9,24.1v2.1H35.2V24.1Z" transform="translate(-2.5 -0.9)"/><path class="cls-1" d="M18.3,33.5a7.5,7.5,0,0,0,0-1.5c0-.4.1-.6.6-.6h10v2.1Z" transform="translate(-2.5 -0.9)"/><path class="cls-1" d="M39.4,21.9v-2h8.4v2Z" transform="translate(-2.5 -0.9)"/><path class="cls-1" d="M45.7,16.7c0-1.1,0-1.1,1.1-1.1s1.1,0,1.1,1.1.1,1.1-1.1,1.1h0C45.7,17.8,45.7,17.8,45.7,16.7Z" transform="translate(-2.5 -0.9)"/><path class="cls-1" d="M14.1,33.5V31.4H16c.1.1.3.3.3.4v1.7Z" transform="translate(-2.5 -0.9)"/><path class="cls-1" d="M35.2,19.9h2.1v2H35.2Z" transform="translate(-2.5 -0.9)"/><path class="cls-1" d="M45.7,37.8a8.4,8.4,0,1,1-8.4,8.4A8.4,8.4,0,0,1,45.7,37.8ZM52,46.3a6.2,6.2,0,0,0-6-6.4,6.3,6.3,0,1,0-.4,12.6A6.2,6.2,0,0,0,52,46.3Z" transform="translate(-2.5 -0.9)"/></svg>