<svg id="Layer_1" data-name="Layer 1" xmlns="http://www.w3.org/2000/svg" viewBox="0 0 51.2 62"><defs><style>.cls-1{fill:#fff;}</style></defs><path class="cls-1" d="M33.9,1.5l4.9,1.2a6.6,6.6,0,0,1,2,.6,8.3,8.3,0,0,1,5.8,6.3.9.9,0,0,1-.5,1.2H46c-.6.2-1-.1-1.2-.8a6.7,6.7,0,0,0-5.6-5.2l-3.6-1a10.9,10.9,0,0,0-6.2,0l-4,1.1a6.3,6.3,0,0,0-5.3,6c-.1,1.7,0,3.5,0,5.3a45.8,45.8,0,0,1,24.9,0V14.4c0-.7.4-1.1.9-1.1a.9.9,0,0,1,.9.9h0v1.3a3.4,3.4,0,0,0,.5,2.2,3.6,3.6,0,0,1,.2,1v2.6a2.8,2.8,0,0,1-2.4,2.8c-.3.1-.4.2-.5.6a11.6,11.6,0,0,1-4.9,8.1c-.3.2-.7.5-.7.8a2,2,0,0,0,.6,2.2,2.4,2.4,0,0,0,1.1.6c1.9.5,3.8.7,5.6,1.3,6.6,2.6,10.6,7.5,11.6,14.5A37.5,37.5,0,0,1,58,59a4.9,4.9,0,0,1-4.7,4.5H12.1a5,5,0,0,1-5-4c0-.1-.1-.1-.1-.2-.2-3.9-.3-7.8,1.3-11.5A17.4,17.4,0,0,1,22,37l2.4-.5a2.4,2.4,0,0,0,1.8-2.7c0-.1-.1-.2-.1-.3a1,1,0,0,0-.5-.4,11.7,11.7,0,0,1-5.2-8.4c0-.3-.1-.4-.5-.5a2.8,2.8,0,0,1-2.4-2.8V18.9c.1-.5.3-.9.4-1.4a5.3,5.3,0,0,0,.3-1.2c.1-1.7,0-3.4,0-5.1a8.5,8.5,0,0,1,6.6-8.1l6.3-1.5h2.8ZM48.1,61.6c0-.1,0-.1.1-.2s-.1-2.1,0-3.1a3.9,3.9,0,0,0-.7-2.3,3.2,3.2,0,0,1-.9-2.3,2,2,0,0,0-2-2.2h-24a1.9,1.9,0,0,0-1.9,1.8,4.2,4.2,0,0,1-1.2,3,1.8,1.8,0,0,0-.6.9v4.4ZM19.6,18.9l-.2.2v2.4c0,.6.4.9,1.1,1a1.8,1.8,0,0,1,1.7,1.7h0c.1.4.1.8.2,1.1a10.4,10.4,0,0,0,12.4,7.7,10.1,10.1,0,0,0,8-8.9,1.8,1.8,0,0,1,1.7-1.7c.7-.1,1.1-.4,1.2-1V19.1l-.2-.2-1,1.2a6,6,0,0,1-5.4,1.5,33.9,33.9,0,0,0-12.7,0A6.2,6.2,0,0,1,20,19.5,2.1,2.1,0,0,1,19.6,18.9Zm3.6,30.7H42V38.7c-.6-.2-1.1-.4-1.6.2l-1.7,1.4a9.1,9.1,0,0,1-11.8,0l-2.1-1.7a1.7,1.7,0,0,0-1.4,0c-.1,0-.2.5-.2.7ZM21.4,38.9l-2.4.8c-.3.1-.4.3-.4.7v2.9a1,1,0,0,1-.9,1.1h-.1q-.9,0-.9-1.2V40.9A15.6,15.6,0,0,0,8.9,53.4h7.8V47.8a1.1,1.1,0,0,1,.9-1,1.1,1.1,0,0,1,1,1v2.3l2.8-.6ZM48.6,41V53.4h7.6A16.5,16.5,0,0,0,48.6,41ZM44.1,17.9A42.2,42.2,0,0,0,21,18l.5.5a4.1,4.1,0,0,0,3.9,1.3,40,40,0,0,1,13.8,0,4.3,4.3,0,0,0,3.3-.5ZM26.6,37.5c4.3,4.4,8.8,3.7,12.2.2a3.7,3.7,0,0,1-1.7-3.3,10.4,10.4,0,0,1-4.6.8c-1.5-.1-3-.4-4.5-.6A4.4,4.4,0,0,1,26.6,37.5Zm-11.7,24c.3-2-.5-4.2.9-6.1h-7v3.3a3.1,3.1,0,0,0,2.6,2.8C12.5,61.6,13.7,61.5,14.9,61.5Zm34.4-6.1c1.3,1.9.5,4.1.8,6.2a18.2,18.2,0,0,0,3.3-.1,2.8,2.8,0,0,0,2.8-2.6c.1-1.1,0-2.3,0-3.5ZM43.9,39V49.5l2.8.6h0V40.3a.7.7,0,0,0-.4-.5Z" transform="translate(-6.9 -1.5)"/><path class="cls-1" d="M32.5,12.5H29.3A2.1,2.1,0,0,1,27,10.6v-.5a2.9,2.9,0,0,1,0-1.3,2.1,2.1,0,0,1,1.9-2.3h7a2.2,2.2,0,0,1,2.2,2.2h0v1.4A2.2,2.2,0,0,1,36,12.5H32.5Zm0-1.9h2.3c1.7,0,1.4.3,1.5-1.6s-.2-.6-.7-.6H30.3c-1.8,0-1.5-.3-1.5,1.6s.1.6.6.6Z" transform="translate(-6.9 -1.5)"/></svg>