<svg id="Layer_1" data-name="Layer 1" xmlns="http://www.w3.org/2000/svg" viewBox="0 0 62.4 38.9"><defs><style>.cls-1{fill:#fff;}</style></defs><path class="cls-1" d="M43.3,8.9" transform="translate(-1.3 -17.1)"/><path class="cls-1" d="M63.7,44.8a1.5,1.5,0,0,1-1.7.9H55.2c-1.3,0-1.6-.2-2-1.4a6.4,6.4,0,0,1-.2-.7l-1.8,1.2-.2.5A4.3,4.3,0,0,1,46.9,50h0a.5.5,0,0,0-.5.3,4.8,4.8,0,0,1-4.8,2.5c-.4,0-.5,0-.7.3a4.5,4.5,0,0,1-5.2,2.2h-.4c-1.8,1.1-3.6.8-5.5.1A11.1,11.1,0,0,1,26,53.2c-3.5-2.7-7-5.4-10.4-8.2-1.2-1-2.3-2.3-3.5-3.5a.1.1,0,0,0-.1-.1c-.1,0-.1,0-.1.1-.7,1.6-.7,1.6-2.5,1.6H3c-1.3,0-1.7-.4-1.7-1.7V18.8c0-1.3.4-1.8,1.7-1.7a58.5,58.5,0,0,1,11,1.7l1.9.8c.9.5,1.1,1,.9,2.1v.5h9.8l1-.4c2-1.4,4.1-2.4,6.6-2a18.9,18.9,0,0,1,3.4.9l7.3,3,.7.3c-.2-1.3.5-1.7,1.4-2a48.3,48.3,0,0,1,9.3-2.1c1.9-.2,3.8-.2,5.7-.3a1.7,1.7,0,0,1,1.7.9ZM16.3,24.9a.7.7,0,0,1-.1.5C15.1,29.6,14,33.8,13,37.9a.8.8,0,0,0,.1.8,59.7,59.7,0,0,0,4.3,4.4c3.9,3.1,7.8,6.2,11.8,9.2a8.5,8.5,0,0,0,2.6,1.1h1.1v-.2L29,49.3a9.3,9.3,0,0,1-1.4-1.4c-.6-.7-.6-1.4,0-1.9a1.2,1.2,0,0,1,1.7-.1c.1.1.1.2.2.2l.5.4c1.9,2,3.9,3.9,5.9,5.9a1.1,1.1,0,0,0,1.6.2,1.8,1.8,0,0,0,1.2-1.2l-2-2.1-3.9-4a1.3,1.3,0,0,1-.2-1.8,1.6,1.6,0,0,1,.9-.5,1.8,1.8,0,0,1,1.4.6c1.9,2,3.8,4,5.8,5.9a2.1,2.1,0,0,0,3-.1.5.5,0,0,0,.2-.8l-.2-.2L37,41.6a1.5,1.5,0,0,1-.6-.9,1.4,1.4,0,0,1,.7-1.4,1.1,1.1,0,0,1,1.5.3c1.1,1,2.1,2.1,3.1,3.1L46,46.9a1,1,0,0,0,1.4.3.1.1,0,0,0,.1-.1,1.3,1.3,0,0,0,.8-1.8l-.2-.4A21.7,21.7,0,0,0,45.7,42c-4-3.5-8-6.8-12-10.2h-.6l-1.8.7a2.6,2.6,0,0,0-1.1.7,6.3,6.3,0,0,1-7,2.1,3.2,3.2,0,0,1-2.5-3.6,8.7,8.7,0,0,1,1.9-4.8l1.6-2ZM49.8,42.5a8.6,8.6,0,0,0,2-1.3.4.4,0,0,0,.2-.6L47.4,27.9a1.2,1.2,0,0,0-.5-.5L36.4,23.1c-2.3-.9-4.5-1-6.6.5A18.8,18.8,0,0,0,25,28.1a9.5,9.5,0,0,0-1.7,3.5c-.1.7,0,1,.7,1.2a3.2,3.2,0,0,0,3.7-.9,4.3,4.3,0,0,0,1.1-1.2l.8-.6,3.5-1.2a2,2,0,0,1,1.8.4l2.9,2.6C41.9,35.4,46.3,38.4,49.8,42.5ZM61.1,22.4c-2.5-.3-10.5,1-12.2,1.9,2.3,6.2,4.6,12.5,6.8,18.7h5.4ZM9.4,40.5a121.7,121.7,0,0,0,4.8-18.9A44.5,44.5,0,0,0,3.9,19.8V40.5Z" transform="translate(-1.3 -17.1)"/></svg>