<svg id="Layer_1" data-name="Layer 1" xmlns="http://www.w3.org/2000/svg" viewBox="0 0 38.5 62.1"><defs><style>.cls-1{fill:#fff;}</style></defs><path class="cls-1" d="M44.5,4.8" transform="translate(-13.3 -1.4)"/><path class="cls-1" d="M31.3,13" transform="translate(-13.3 -1.4)"/><path class="cls-1" d="M28.8,39.7a2.5,2.5,0,0,1,1.4,2.5A2.2,2.2,0,0,0,28.8,39.7Z" transform="translate(-13.3 -1.4)"/><path class="cls-1" d="M30.2,42.2Z" transform="translate(-13.3 -1.4)"/><path class="cls-1" d="M35.7,8.5h0c0,.2.1.4.1.6a2.7,2.7,0,0,1-.6,2.4l.3-.3A2.9,2.9,0,0,0,35.7,8.5Z" transform="translate(-13.3 -1.4)"/><path class="cls-1" d="M20,26.5v4.3l.9-.2-.8-4.1Z" transform="translate(-13.3 -1.4)"/><path class="cls-1" d="M32.1,6.2Z" transform="translate(-13.3 -1.4)"/><path class="cls-1" d="M29.2,8.8a.4.4,0,0,1,.1-.3v.2Z" transform="translate(-13.3 -1.4)"/><path class="cls-1" d="M47.2,21.4H44.3v3.2l2.7.6h.3v-.4l.3-2.8v-.5Zm-.9,2.4-.8-.2v-1h1Z" transform="translate(-13.3 -1.4)"/><path class="cls-1" d="M20,26.5Z" transform="translate(-13.3 -1.4)"/><path class="cls-1" d="M20,30.8" transform="translate(-13.3 -1.4)"/><path class="cls-1" d="M28.3,39.4l.3.2h0Z" transform="translate(-13.3 -1.4)"/><path class="cls-1" d="M35.2,11.4v.2h0Z" transform="translate(-13.3 -1.4)"/><path class="cls-1" d="M31.3,13h0v-.2l-.7-.4.7.4Z" transform="translate(-13.3 -1.4)"/><path class="cls-1" d="M29.1,9.1V8.8h0Z" transform="translate(-13.3 -1.4)"/><path class="cls-1" d="M29.4,8.1a3.3,3.3,0,0,1,2.7-1.9H32A3.2,3.2,0,0,0,29.4,8.1Z" transform="translate(-13.3 -1.4)"/><path class="cls-1" d="M32.5,35.4,31.2,35A9.4,9.4,0,0,1,30,33.2H28a4.5,4.5,0,0,0,4.5,4.5h.1a4.4,4.4,0,0,0,4.3-4.5H34.8C34.3,34.8,33.7,35.4,32.5,35.4Z" transform="translate(-13.3 -1.4)"/><path class="cls-1" d="M31.9,32l1.3-.7a2.2,2.2,0,0,0,.9-3h0a6.8,6.8,0,0,1-.5-2.3v-.7H31.4c-.1,1.4-.3,2.8.7,4l-1.2.6Z" transform="translate(-13.3 -1.4)"/><path class="cls-1" d="M38.1,24.2A1,1,0,0,0,37,25.3a1.2,1.2,0,0,0,.9,1.1h.2a1.1,1.1,0,0,0,1.1-1.1h0a.9.9,0,0,0-.9-1.1Z" transform="translate(-13.3 -1.4)"/><path class="cls-1" d="M26.8,24.2a1,1,0,0,0-1.1,1v.2a1.3,1.3,0,0,0,1.6.7,1.4,1.4,0,0,0,.7-.8,1.1,1.1,0,0,0-1.1-1.2Z" transform="translate(-13.3 -1.4)"/><path class="cls-1" d="M42.7,44.9c-1.6-.5-3.3-.8-5-1.2s-.7,0-.7-.5-.3-1.2.5-1.6a12.7,12.7,0,0,0,6.9-8c.1-.4.3-.4.7-.4a4.6,4.6,0,0,0,4.1-3.5c.1,0,.1-.1.1-.2L47,25.2l-2.7-.6V21.4h3.5V22l1.7.2h.1a7,7,0,0,0,1.6-1.9h0c.8-1.4.5-2.8.2-4.2A24.3,24.3,0,0,0,50,11.3a20.4,20.4,0,0,0-2.6-3.9,11,11,0,0,0-3-2.7,23.5,23.5,0,0,0-4.5-2.2C36.1,1.2,32,1.4,28.1,1.8A16.7,16.7,0,0,0,13.8,14.4c-.2.9-.3,1.9-.5,2.8a8.7,8.7,0,0,0,.1,2.3,4.1,4.1,0,0,0,2,2.1c.1.1.1.4.2.5l.6,3.7a1.2,1.2,0,0,1-.1.8,4.5,4.5,0,0,0,1.9,6l1.1.5h1.3l.2.4a12.6,12.6,0,0,0,6.8,8,1.5,1.5,0,0,1,.5,1.9h-.5l-1.8.4a2,2,0,0,0-.4-.8,3.2,3.2,0,0,0-4.1-2.2h-.3l-2.1.9c-.7-2.2-1.3-4.4-2-6.7l-2.2.6a10.5,10.5,0,0,1,.5,1.9l2.7,9.1c.1.4.1.6-.2.8a11.8,11.8,0,0,0-4,7.5l-.2.4v8.2H51.7V56.7A12.3,12.3,0,0,0,42.7,44.9Zm2.2-18.4a2.2,2.2,0,0,1,2.2,2.2h0a2,2,0,0,1-1.9,2.1h-.3Zm-5.5,20-3,5.4h-.3c-.7-1.3-1.4-2.6-2.2-3.9L36,45.9a.3.3,0,0,1,.5-.1ZM32,15.2c2,0,4-.1,6,.1a8,8,0,0,1,6,4l.2.3H20.7a8.4,8.4,0,0,1,6.2-4.3A29,29,0,0,1,32,15.2Zm-.6-5.7a1,1,0,0,1,1-1.1h.3a.9.9,0,0,1,.9.8c.1.7-.5,1.4-1.1,1.3A1.1,1.1,0,0,1,31.4,9.5ZM16.5,19.6a1.4,1.4,0,0,1-.9-1.2A14.5,14.5,0,0,1,24.8,5a10.6,10.6,0,0,1,4.6-1,30.2,30.2,0,0,1,8.5.3A14.4,14.4,0,0,1,49.2,16.7c.1.6.1,1.2.2,1.8a1.2,1.2,0,0,1-1,1.1H47l-.4-.4a10.4,10.4,0,0,0-8.1-6.1,17,17,0,0,0-4.5-.2h-.3l.5-.4.3-.4h.2l.3-.3h.1v-.2A2.8,2.8,0,0,0,35.8,9c0-.2-.1-.4-.1-.6s-.1-.1-.1-.2l-.2-.4V7.6c-.1-.1-.2-.2-.2-.3H35L34.7,7h-.1l-.5-.3H34l-.5-.2H32.1a3.3,3.3,0,0,0-2.7,1.9h-.1V9a.4.4,0,0,1-.1.3v1.4c0,.1.1.2.1.3v.2c0,.1.2.2.2.3l.2.2.2.3h.2l.3.3.2.2.7.4H27.1a10.6,10.6,0,0,0-8.6,6C18.2,19.7,17.5,19.9,16.5,19.6ZM20,22v2.1l-1.8.4c-.2-.9-.3-1.7-.4-2.5Zm0,8.8H19l-.2-.2h-.1c0-.2-.1-.2-.2-.2h0l-.2-.2a2.3,2.3,0,0,1-.2-2.4c.1-.1.1-.2.2-.2h.1v-.2h.1v-.2h1.4c.4,2.1.4,1.9.8,4.1Zm7.9,8.5-.3-.2h-.3l-.3-.2-.3-.2-.3-.3h-.3l-.3-.3c0-.1-.1-.1-.2-.2l-.3-.3-.2-.2-.3-.4-.2-.2-.4-.5a10.2,10.2,0,0,1-1.8-5.2c-.1-3,0-5.9,0-8.9H42.5v.2c0,2.9.1,5.9-.1,8.8a11.1,11.1,0,0,1-5.8,8.5l-1.2.6a2.6,2.6,0,0,0-.8,2.3,2.5,2.5,0,0,1-1.1,2.7,4.3,4.3,0,0,0-1.1,1.2l-2.1-2.2c-.1-.1-.1-.3-.2-.5V42.2h0a2.6,2.6,0,0,0-1.4-2.4h-.5C28.2,39.4,28,39.4,27.9,39.3Zm.7,6.5c.1-.1.3,0,.4.2l2.1,2c-.8,1.3-1.5,2.6-2.2,3.9-1.7-1.5-2-3.6-2.7-5.6Zm-7-2.7a1,1,0,0,1,1.4.3c.1.1.1.2.1.4l2.1,6.9a.9.9,0,0,1-.6,1.2h-.1l-1.1.5a1.2,1.2,0,0,1-1.6-.3.9.9,0,0,1-.3-.6c-.5-1.9-1.1-3.8-1.6-5.7L19.3,44A10.9,10.9,0,0,1,21.6,43.1Zm9.8,18.2H15.6V58.2a13,13,0,0,1,.5-4.4,10.1,10.1,0,0,1,2.5-4.1c.3.9.5,1.7.8,2.5a3.3,3.3,0,0,0,3.8,2.7l1-.3,2.7-1.3c1.1,1,2.2,2.3,3.5,3.3a2.1,2.1,0,0,1,1,2.1Zm-.7-7.4c-.1-.1-.2-.3-.1-.4l1.9-3.4c.7,1.3,1.4,2.4,2,3.6l-2,1.8Zm2.9,7.4c0-1.3,0-2.5.1-3.7s0-.3.1-.3a22.8,22.8,0,0,0,4.7-4.6,34.6,34.6,0,0,0,3-5.7,9.6,9.6,0,0,1,7.7,8c.2,2.1.2,4.2.2,6.3Z" transform="translate(-13.3 -1.4)"/><polygon class="cls-1" points="36.1 28 36.1 28 36.1 28 36.1 28"/><path class="cls-1" d="M49.4,28.8c0,.2-.1.4-.1.7L47,25.2h.3v-.4A4.2,4.2,0,0,1,49.4,28.8Z" transform="translate(-13.3 -1.4)"/></svg>